<mxfile host="app.diagrams.net" modified="2024-03-12T08:59:24.503Z" agent="Mozilla/5.0 (X11; Ubuntu; Linux x86_64; rv:123.0) Gecko/20100101 Firefox/123.0" etag="_myWjRdcC8q1S_RPTW6s" version="24.0.4" type="github">
  <diagram name="Page-1" id="twSKNyBGblwPvB1pkS_4">
    <mxGraphModel dx="574" dy="307" grid="1" gridSize="10" guides="1" tooltips="1" connect="1" arrows="1" fold="1" page="1" pageScale="1" pageWidth="827" pageHeight="1169" math="1" shadow="0">
      <root>
        <mxCell id="0" />
        <mxCell id="1" parent="0" />
        <mxCell id="lR8FC9wkC_hXhsZftpVI-1" value="&lt;b&gt;kp&lt;/b&gt;" style="rounded=0;whiteSpace=wrap;html=1;" vertex="1" parent="1">
          <mxGeometry x="190" y="160" width="40" height="40" as="geometry" />
        </mxCell>
        <mxCell id="lR8FC9wkC_hXhsZftpVI-11" style="edgeStyle=orthogonalEdgeStyle;rounded=0;orthogonalLoop=1;jettySize=auto;html=1;exitX=1;exitY=0.5;exitDx=0;exitDy=0;entryX=0;entryY=0.5;entryDx=0;entryDy=0;" edge="1" parent="1" source="lR8FC9wkC_hXhsZftpVI-2" target="lR8FC9wkC_hXhsZftpVI-9">
          <mxGeometry relative="1" as="geometry" />
        </mxCell>
        <mxCell id="lR8FC9wkC_hXhsZftpVI-2" value="&lt;b&gt;kd&lt;/b&gt;" style="rounded=0;whiteSpace=wrap;html=1;" vertex="1" parent="1">
          <mxGeometry x="190" y="320" width="40" height="40" as="geometry" />
        </mxCell>
        <mxCell id="lR8FC9wkC_hXhsZftpVI-10" style="edgeStyle=orthogonalEdgeStyle;rounded=0;orthogonalLoop=1;jettySize=auto;html=1;exitX=1;exitY=0.5;exitDx=0;exitDy=0;entryX=0;entryY=0.5;entryDx=0;entryDy=0;" edge="1" parent="1" source="lR8FC9wkC_hXhsZftpVI-3" target="lR8FC9wkC_hXhsZftpVI-8">
          <mxGeometry relative="1" as="geometry" />
        </mxCell>
        <mxCell id="lR8FC9wkC_hXhsZftpVI-3" value="&lt;b&gt;ki&lt;/b&gt;" style="rounded=0;whiteSpace=wrap;html=1;" vertex="1" parent="1">
          <mxGeometry x="190" y="240" width="40" height="40" as="geometry" />
        </mxCell>
        <mxCell id="lR8FC9wkC_hXhsZftpVI-5" style="edgeStyle=orthogonalEdgeStyle;rounded=0;orthogonalLoop=1;jettySize=auto;html=1;exitX=1;exitY=0.5;exitDx=0;exitDy=0;exitPerimeter=0;entryX=0;entryY=0.5;entryDx=0;entryDy=0;" edge="1" parent="1" source="lR8FC9wkC_hXhsZftpVI-4" target="lR8FC9wkC_hXhsZftpVI-3">
          <mxGeometry relative="1" as="geometry" />
        </mxCell>
        <mxCell id="lR8FC9wkC_hXhsZftpVI-6" style="edgeStyle=orthogonalEdgeStyle;rounded=0;orthogonalLoop=1;jettySize=auto;html=1;exitX=1;exitY=0.5;exitDx=0;exitDy=0;exitPerimeter=0;entryX=0;entryY=0.5;entryDx=0;entryDy=0;" edge="1" parent="1" source="lR8FC9wkC_hXhsZftpVI-4" target="lR8FC9wkC_hXhsZftpVI-1">
          <mxGeometry relative="1" as="geometry">
            <Array as="points">
              <mxPoint x="160" y="260" />
              <mxPoint x="160" y="180" />
            </Array>
          </mxGeometry>
        </mxCell>
        <mxCell id="lR8FC9wkC_hXhsZftpVI-7" style="edgeStyle=orthogonalEdgeStyle;rounded=0;orthogonalLoop=1;jettySize=auto;html=1;exitX=1;exitY=0.5;exitDx=0;exitDy=0;exitPerimeter=0;entryX=0;entryY=0.5;entryDx=0;entryDy=0;" edge="1" parent="1" source="lR8FC9wkC_hXhsZftpVI-4" target="lR8FC9wkC_hXhsZftpVI-2">
          <mxGeometry relative="1" as="geometry">
            <Array as="points">
              <mxPoint x="160" y="260" />
              <mxPoint x="160" y="340" />
            </Array>
          </mxGeometry>
        </mxCell>
        <mxCell id="lR8FC9wkC_hXhsZftpVI-22" style="edgeStyle=orthogonalEdgeStyle;rounded=0;orthogonalLoop=1;jettySize=auto;html=1;exitX=0;exitY=0.5;exitDx=0;exitDy=0;exitPerimeter=0;entryX=0;entryY=0.5;entryDx=0;entryDy=0;entryPerimeter=0;" edge="1" parent="1" target="lR8FC9wkC_hXhsZftpVI-4">
          <mxGeometry relative="1" as="geometry">
            <mxPoint x="70" y="260" as="sourcePoint" />
          </mxGeometry>
        </mxCell>
        <mxCell id="lR8FC9wkC_hXhsZftpVI-23" style="edgeStyle=orthogonalEdgeStyle;rounded=0;orthogonalLoop=1;jettySize=auto;html=1;exitX=0.5;exitY=1;exitDx=0;exitDy=0;exitPerimeter=0;entryX=0.5;entryY=1;entryDx=0;entryDy=0;entryPerimeter=0;" edge="1" parent="1" target="lR8FC9wkC_hXhsZftpVI-4">
          <mxGeometry relative="1" as="geometry">
            <mxPoint x="110.01342281879192" y="300" as="sourcePoint" />
          </mxGeometry>
        </mxCell>
        <mxCell id="lR8FC9wkC_hXhsZftpVI-4" value="" style="verticalLabelPosition=bottom;verticalAlign=top;html=1;shape=mxgraph.flowchart.or;" vertex="1" parent="1">
          <mxGeometry x="100" y="250" width="20" height="20" as="geometry" />
        </mxCell>
        <mxCell id="lR8FC9wkC_hXhsZftpVI-17" style="edgeStyle=orthogonalEdgeStyle;rounded=0;orthogonalLoop=1;jettySize=auto;html=1;exitX=1;exitY=0.5;exitDx=0;exitDy=0;entryX=0;entryY=0.5;entryDx=0;entryDy=0;" edge="1" parent="1" source="lR8FC9wkC_hXhsZftpVI-8" target="lR8FC9wkC_hXhsZftpVI-16">
          <mxGeometry relative="1" as="geometry" />
        </mxCell>
        <mxCell id="lR8FC9wkC_hXhsZftpVI-8" value="&lt;b&gt;$$\frac{1}{s}$$&lt;/b&gt;" style="rounded=0;whiteSpace=wrap;html=1;" vertex="1" parent="1">
          <mxGeometry x="260" y="240" width="40" height="40" as="geometry" />
        </mxCell>
        <mxCell id="lR8FC9wkC_hXhsZftpVI-9" value="&lt;b&gt;$$s$$&lt;/b&gt;" style="rounded=0;whiteSpace=wrap;html=1;" vertex="1" parent="1">
          <mxGeometry x="260" y="320" width="40" height="40" as="geometry" />
        </mxCell>
        <mxCell id="lR8FC9wkC_hXhsZftpVI-29" style="edgeStyle=orthogonalEdgeStyle;rounded=0;orthogonalLoop=1;jettySize=auto;html=1;exitX=1;exitY=0.5;exitDx=0;exitDy=0;exitPerimeter=0;" edge="1" parent="1" source="lR8FC9wkC_hXhsZftpVI-12">
          <mxGeometry relative="1" as="geometry">
            <mxPoint x="450" y="260.20000000000005" as="targetPoint" />
          </mxGeometry>
        </mxCell>
        <mxCell id="lR8FC9wkC_hXhsZftpVI-12" value="" style="verticalLabelPosition=bottom;verticalAlign=top;html=1;shape=mxgraph.flowchart.or;" vertex="1" parent="1">
          <mxGeometry x="400" y="250" width="20" height="20" as="geometry" />
        </mxCell>
        <mxCell id="lR8FC9wkC_hXhsZftpVI-13" style="edgeStyle=orthogonalEdgeStyle;rounded=0;orthogonalLoop=1;jettySize=auto;html=1;exitX=1;exitY=0.5;exitDx=0;exitDy=0;entryX=0.5;entryY=0;entryDx=0;entryDy=0;entryPerimeter=0;" edge="1" parent="1" source="lR8FC9wkC_hXhsZftpVI-1" target="lR8FC9wkC_hXhsZftpVI-12">
          <mxGeometry relative="1" as="geometry" />
        </mxCell>
        <mxCell id="lR8FC9wkC_hXhsZftpVI-15" style="edgeStyle=orthogonalEdgeStyle;rounded=0;orthogonalLoop=1;jettySize=auto;html=1;exitX=1;exitY=0.5;exitDx=0;exitDy=0;entryX=0.5;entryY=1;entryDx=0;entryDy=0;entryPerimeter=0;" edge="1" parent="1" source="lR8FC9wkC_hXhsZftpVI-9" target="lR8FC9wkC_hXhsZftpVI-12">
          <mxGeometry relative="1" as="geometry" />
        </mxCell>
        <mxCell id="lR8FC9wkC_hXhsZftpVI-16" value="sat" style="rounded=0;whiteSpace=wrap;html=1;" vertex="1" parent="1">
          <mxGeometry x="330" y="240" width="40" height="40" as="geometry" />
        </mxCell>
        <mxCell id="lR8FC9wkC_hXhsZftpVI-18" style="edgeStyle=orthogonalEdgeStyle;rounded=0;orthogonalLoop=1;jettySize=auto;html=1;exitX=1;exitY=0.5;exitDx=0;exitDy=0;entryX=0;entryY=0.5;entryDx=0;entryDy=0;entryPerimeter=0;" edge="1" parent="1" source="lR8FC9wkC_hXhsZftpVI-16" target="lR8FC9wkC_hXhsZftpVI-12">
          <mxGeometry relative="1" as="geometry" />
        </mxCell>
        <mxCell id="lR8FC9wkC_hXhsZftpVI-24" value="current state" style="text;strokeColor=none;align=center;fillColor=none;html=1;verticalAlign=middle;whiteSpace=wrap;rounded=0;" vertex="1" parent="1">
          <mxGeometry x="90" y="300" width="40" height="30" as="geometry" />
        </mxCell>
        <mxCell id="lR8FC9wkC_hXhsZftpVI-25" value="set-point" style="text;strokeColor=none;align=center;fillColor=none;html=1;verticalAlign=middle;whiteSpace=wrap;rounded=0;" vertex="1" parent="1">
          <mxGeometry x="30" y="245" width="40" height="30" as="geometry" />
        </mxCell>
        <mxCell id="lR8FC9wkC_hXhsZftpVI-26" value="+" style="text;strokeColor=none;align=center;fillColor=none;html=1;verticalAlign=middle;whiteSpace=wrap;rounded=0;" vertex="1" parent="1">
          <mxGeometry x="80" y="250" width="10" height="10" as="geometry" />
        </mxCell>
        <mxCell id="lR8FC9wkC_hXhsZftpVI-27" value="-" style="text;strokeColor=none;align=center;fillColor=none;html=1;verticalAlign=middle;whiteSpace=wrap;rounded=0;" vertex="1" parent="1">
          <mxGeometry x="100" y="280" width="10" height="10" as="geometry" />
        </mxCell>
        <mxCell id="lR8FC9wkC_hXhsZftpVI-28" value="error" style="text;strokeColor=none;align=center;fillColor=none;html=1;verticalAlign=middle;whiteSpace=wrap;rounded=0;" vertex="1" parent="1">
          <mxGeometry x="120" y="250" width="30" height="10" as="geometry" />
        </mxCell>
        <mxCell id="lR8FC9wkC_hXhsZftpVI-30" value="+" style="text;strokeColor=none;align=center;fillColor=none;html=1;verticalAlign=middle;whiteSpace=wrap;rounded=0;" vertex="1" parent="1">
          <mxGeometry x="380" y="250" width="10" height="10" as="geometry" />
        </mxCell>
        <mxCell id="lR8FC9wkC_hXhsZftpVI-31" value="+" style="text;strokeColor=none;align=center;fillColor=none;html=1;verticalAlign=middle;whiteSpace=wrap;rounded=0;" vertex="1" parent="1">
          <mxGeometry x="400" y="280" width="10" height="10" as="geometry" />
        </mxCell>
        <mxCell id="lR8FC9wkC_hXhsZftpVI-32" value="+" style="text;strokeColor=none;align=center;fillColor=none;html=1;verticalAlign=middle;whiteSpace=wrap;rounded=0;" vertex="1" parent="1">
          <mxGeometry x="400" y="230" width="10" height="10" as="geometry" />
        </mxCell>
      </root>
    </mxGraphModel>
  </diagram>
</mxfile>
